<svg xmlns="http://www.w3.org/2000/svg" viewBox="0 0 512 512"><title>Artboard 112</title><g id="Business_Woman" data-name="Business Woman"><circle cx="192" cy="362.66667" r="64" style="fill:#552a1f"/><path d="M170.66667,362.66667H149.33333A42.70887,42.70887,0,0,1,192,320v21.33333A21.36112,21.36112,0,0,0,170.66667,362.66667Z" style="fill:#361200"/><rect x="128" y="21.33333" width="256" height="319.99987" rx="127.99987" ry="127.99987" style="fill:#552a1f"/><rect x="128" y="192" width="21.33333" height="21.33333" style="fill:#8f492b"/><rect x="341.33333" y="192" width="42.66667" height="64" rx="21.33331" ry="21.33331" style="fill:#cb7956"/><rect x="128" y="192" width="42.66667" height="64" rx="21.33331" ry="21.33331" style="fill:#e29971"/><path d="M192,277.33333v64a21.33334,21.33334,0,0,1-21.33333,21.33334h-64A85.33333,85.33333,0,0,0,21.33333,448v42.66667H490.66667V448a85.33333,85.33333,0,0,0-85.33334-85.33333h-64A21.33334,21.33334,0,0,1,320,341.33333v-64Z" style="fill:#e29971"/><path d="M362.66667,490.66667H149.33333V448S192,469.33333,256,469.33333,362.66667,448,362.66667,448Z" style="fill:#caecf6"/><rect x="149.33333" y="405.33333" width="85.33333" height="42.66667" rx="21.33331" ry="21.33331" style="fill:#edbda4"/><circle cx="213.33333" cy="426.66667" r="21.33333" style="fill:#f5d9cb"/><path d="M106.66667,362.66667h64a0,0,0,0,1,0,0v128a0,0,0,0,1,0,0H21.33333a0,0,0,0,1,0,0V448A85.33333,85.33333,0,0,1,106.66667,362.66667Z" style="fill:#345460"/><path d="M192,341.33333s-64,21.33334-85.33333,85.33334L149.33333,448l-42.66666,42.66667H192Z" style="fill:#4c6a74"/><path d="M341.33333,362.66667A21.33356,21.33356,0,0,1,320,341.33333v-64H234.66667v128a21.33333,21.33333,0,1,0,42.66666,0h85.33334V362.66667Z" style="fill:#cb7956"/><path d="M341.33333,362.66667H490.66667a0,0,0,0,1,0,0v128a0,0,0,0,1,0,0h-64a85.33333,85.33333,0,0,1-85.33333-85.33333V362.66667A0,0,0,0,1,341.33333,362.66667Z" transform="translate(832 853.33333) rotate(-180)" style="fill:#224552"/><path d="M341.33333,362.66667S384,384,426.66667,426.66667c32,32,42.66666,64,42.66666,64h-128Z" style="fill:#062d3c"/><path d="M64,490.66667H42.66667V448a64.07,64.07,0,0,1,64-64v21.33333A42.70887,42.70887,0,0,0,64,448Z" style="fill:#607a8a"/><rect x="149.33333" y="42.66667" width="213.33333" height="298.66656" rx="106.66656" ry="106.66656" style="fill:#edbda4"/><path d="M320,64.48307v84.85026H277.33333v21.33334H320v42.66659a21.33333,21.33333,0,0,1,21.33333,21.33333v.00008A21.33333,21.33333,0,0,1,320,256H256v64h21.33333v19.18359a106.69065,106.69065,0,0,0,85.33334-104.51692V149.33333C362.66667,114.54948,345.76562,83.95443,320,64.48307Z" style="fill:#e29971"/><polygon points="234.667 234.667 234.667 256 277.333 256 277.333 192 320 192 320 170.667 256 170.667 256 234.667 234.667 234.667" style="fill:#cb7956"/><rect x="298.66667" y="192" width="21.33333" height="21.33333" style="fill:#4c2c1a"/><rect x="192" y="192" width="21.33333" height="21.33333" style="fill:#4c2c1a"/><rect x="234.66667" y="277.33333" width="42.66667" height="21.33333" style="fill:#ce464d"/><path d="M320,341.33333s64,21.33334,85.33333,85.33334L362.66667,448l42.66666,42.66667H320Z" style="fill:#345460"/><path d="M256.00013,21.33333h-.00026A127.99987,127.99987,0,0,0,128,149.33321V192h85.3335a85.33312,85.33312,0,0,0,85.33312-85.33316v-.00009l0-.00008H320s0,26.87629,21.33092,48.63249a79.19065,79.19065,0,0,0,21.33575,15.36751V192H384V149.33321A127.99987,127.99987,0,0,0,256.00013,21.33333Z" style="fill:#552a1f"/><path d="M228.459,24.38708C168.77266,37.65634,128,93.31858,128,154.4621V192h85.3336a85.33307,85.33307,0,0,0,85.33307-85.33307V28.77344A126.06565,126.06565,0,0,0,228.459,24.38708Z" style="fill:#8f492b"/><rect x="170.66667" y="362.66667" width="21.33333" height="128" style="fill:#345460"/><rect x="320" y="362.66667" width="21.33333" height="128" style="fill:#4c6a74"/><path d="M192,462.04557v28.6211h21.33333v-24.651C205.70313,464.85417,198.44922,463.53646,192,462.04557Z" style="fill:#95daec"/><rect x="298.66667" y="85.33333" width="21.33333" height="21.33333" style="fill:#cb7956"/><path d="M170.66667,149.33333H149.33333A106.79223,106.79223,0,0,1,256,42.66667V64A85.4311,85.4311,0,0,0,170.66667,149.33333Z" style="fill:#cb7956"/><path d="M213.33333,192h-64V170.66667h64a64.07,64.07,0,0,0,64-64V85.33333h21.33334v21.33334A85.43111,85.43111,0,0,1,213.33333,192Z" style="fill:#552a1f"/></g></svg>