<svg xmlns="http://www.w3.org/2000/svg" viewBox="0 0 512 512"><title>Artboard 137</title><g id="Party_Man" data-name="Party Man"><rect x="341.33333" y="192" width="42.66667" height="64" rx="21.33331" ry="21.33331" style="fill:#cb7956"/><rect x="128" y="192" width="42.66667" height="64" rx="21.33331" ry="21.33331" style="fill:#e29971"/><path d="M192,277.33333v64a21.33334,21.33334,0,0,1-21.33333,21.33334h-64A85.33333,85.33333,0,0,0,21.33333,448v42.66667H490.66667V448a85.33333,85.33333,0,0,0-85.33334-85.33333h-64A21.33334,21.33334,0,0,1,320,341.33333v-64Z" style="fill:#e29971"/><path d="M341.33333,362.66667A21.33356,21.33356,0,0,1,320,341.33333v-64H256v85.33334l21.33333,0V384l-42.66666,0v21.33331a21.33333,21.33333,0,1,0,42.66666,0h85.33334V362.66667Z" style="fill:#cb7956"/><path d="M256,384V490.66667H490.66667V448a85.33333,85.33333,0,0,0-85.33334-85.33333h-64L320,341.33333Z" style="fill:#95daec"/><rect x="234.66667" y="405.33333" width="42.66667" height="85.33333" style="fill:#72cee6"/><polygon points="253.595 426.667 320 469.333 320 384 253.595 426.667" style="fill:#3ebcdd"/><rect x="405.33333" y="448" width="42.66667" height="42.66667" style="fill:#3ebcdd"/><path d="M192,341.33333,256,384V490.66667H21.33333V448a85.33333,85.33333,0,0,1,85.33334-85.33333h64Z" style="fill:#caecf6"/><path d="M64,490.66667H42.66667V448a64.07,64.07,0,0,1,64-64v21.33333A42.71555,42.71555,0,0,0,64,448Z" style="fill:#e7f6fa"/><polygon points="192 341.333 192 384 256 384 192 341.333" style="fill:#e7f6fa"/><polygon points="256 384 320 384 320 341.333 256 384" style="fill:#caecf6"/><rect x="170.66667" y="405.33333" width="21.33333" height="85.33333" style="fill:#95daec"/><polygon points="170.667 362.667 192 490.667 85.333 490.667 85.333 362.667 170.667 362.667" style="fill:#345460"/><rect x="162.5204" y="404.81722" width="21.3342" height="75.69888" transform="translate(-70.49142 34.5389) rotate(-9.47269)" style="fill:#133846"/><polygon points="341.333 362.667 320 490.667 426.667 490.667 426.667 362.667 341.333 362.667" style="fill:#133846"/><circle cx="245.33333" cy="458.66667" r="10.66667" style="fill:#95daec"/><rect x="362.66667" y="362.66667" width="42.66667" height="21.33333" style="fill:#345460"/><rect x="106.66667" y="362.66667" width="42.66667" height="21.33333" style="fill:#607a8a"/><rect x="300.96306" y="431.99957" width="75.69888" height="21.3342" transform="translate(-153.69942 703.77909) rotate(-80.50088)" style="fill:#345460"/><rect x="149.33333" y="42.66667" width="213.33333" height="298.66656" rx="106.66656" ry="106.66656" style="fill:#edbda4"/><path d="M320,64.48307v84.85026H277.33333v21.33334H320v42.66659a21.33333,21.33333,0,0,1,21.33333,21.33333v.00008A21.33333,21.33333,0,0,1,320,256H256v64h21.33333v19.18359a106.69065,106.69065,0,0,0,85.33334-104.51692V149.33333C362.66667,114.54948,345.76562,83.95443,320,64.48307Z" style="fill:#e29971"/><rect x="234.66667" y="256" width="42.66667" height="21.33333" style="fill:#8f492b"/><rect x="256" y="256" width="21.33333" height="21.33333" style="fill:#552a1f"/><path d="M277.33333,320V298.66667H234.66667V320H213.33333a42.66667,42.66667,0,0,0,85.33334,0Z" style="fill:#8f492b"/><rect x="256" y="298.66667" width="21.33333" height="42.66667" style="fill:#552a1f"/><rect x="213.33333" y="277.33333" width="21.33333" height="21.33333" style="fill:#8f492b"/><rect x="213.33333" y="256" width="21.33333" height="21.33333" style="fill:#e29971"/><rect x="277.33333" y="277.33333" width="21.33333" height="21.33333" style="fill:#552a1f"/><rect x="277.33333" y="256" width="21.33333" height="21.33333" style="fill:#8f492b"/><polygon points="234.667 234.667 234.667 256 277.333 256 277.333 192 320 192 320 170.667 256 170.667 256 234.667 234.667 234.667" style="fill:#cb7956"/><rect x="298.66667" y="192" width="21.33333" height="21.33333" style="fill:#4c2c1a"/><rect x="192" y="192" width="21.33333" height="21.33333" style="fill:#4c2c1a"/><rect x="234.66667" y="277.33333" width="42.66667" height="21.33333" style="fill:#ce464d"/><polygon points="256 405.333 192 362.667 192 448 256 405.333" style="fill:#345460"/><polygon points="256 405.333 192 362.667 192 384 240 416 256 405.333" style="fill:#607a8a"/><polygon points="256 405.333 320 362.667 320 448 256 405.333" style="fill:#062d3c"/><polygon points="320 426.667 320 362.667 272 394.667 320 426.667" style="fill:#224552"/><rect x="234.66667" y="384" width="42.66667" height="42.66667" style="fill:#4c6a74"/><rect x="234.66667" y="384" width="42.66667" height="21.33333" style="fill:#a2b2ba"/><rect x="256" y="405.33333" width="21.33333" height="21.33333" style="fill:#345460"/><path d="M170.66667,64s-21.33334,0-21.33334-21.33333,21.33334-21.33334,21.33334-21.33334,0,21.33334,21.33333,21.33334,42.66667-21.33334,85.33333-21.33334c64,0,85.33334,42.66667,85.33334,64,0,0,42.66666,21.33334,42.66666,64S362.66667,192,362.66667,192v21.33333H341.33333V106.66667L320,85.98824S288,96,256,128c0,0-42.66667,0-64-42.66667l-21.33333,21.33334V213.33331H149.33333V192s-42.66666,0-42.66666-42.66667C106.66667,85.33333,170.66667,64,170.66667,64Z" style="fill:#552a1f"/><path d="M248.35417,108.8125l-7.14584-2.97917c-28.5625-11.97916-47.14583-46-47.9375-47.4375l18.77084-10.13541c.14583.26041,12.85416,23.375,31.08333,34.61458,11.72917-11.5625,39.95833-35.59375,75.52083-40.125l2.70834,21.16667c-37.95834,4.83333-67.64584,38.70833-67.9375,39.05208Z" style="fill:#8f492b"/><path d="M106.66667,149.33333C106.66667,192,149.33333,192,149.33333,192v21.33333h21.33334V106.66667L192,85.33333,170.66667,64S106.66667,85.33333,106.66667,149.33333Z" style="fill:#8f492b"/><rect x="149.33333" y="106.66667" width="21.33333" height="21.33333" style="fill:#cb7956"/><rect x="149.33333" y="149.33333" width="21.33333" height="21.33333" style="fill:#cb7956"/><rect x="341.33333" y="149.33333" width="21.33333" height="21.33333" style="fill:#8f492b"/><rect x="341.33333" y="106.66667" width="21.33333" height="21.33333" style="fill:#8f492b"/></g></svg>