<svg xmlns="http://www.w3.org/2000/svg" viewBox="0 0 512 512"><title>Artboard 138</title><g id="Afro_Party_Lady" data-name="Afro Party Lady"><path d="M106.66667,128c0-64,42.66666-85.33333,85.33333-85.33333,0,0,21.33333-21.33334,64-21.33334C320,21.33333,332.49678,64,362.66667,64,384,64,405.33333,85.33333,405.33333,106.66667S426.66667,128,426.66667,149.33333s-21.33334,21.33334-21.33334,42.66652c0,21.33348,21.33334,21.33348,21.33334,42.66682S405.33333,256,405.33333,277.33333,426.66667,298.66667,426.66667,320h-320Z" style="fill:#361200"/><path d="M106.66667,149.33333c0,21.33334-21.33334,21.33334-21.33334,42.66667s21.33334,21.33333,21.33334,42.66667S85.33333,256,85.33333,277.33333,106.66667,298.66667,106.66667,320H256V149.33333Z" style="fill:#361200"/><path d="M426.66667,234.66667c0-21.33334-21.33334-21.33334-21.33334-42.66667s21.33334-21.33333,21.33334-42.66667S405.33333,128,405.33333,106.66667,384,64,362.66667,64C332.4974,64,320,21.33333,256,21.33333c-42.66667,0-64,21.33334-64,21.33334C192,64,213.33333,64,213.33333,85.33333S192,106.66667,192,128V320H426.66667c0-21.33333-21.33334-21.33333-21.33334-42.66667S426.66667,256,426.66667,234.66667Z" style="fill:#290300"/><rect x="341.33333" y="192" width="42.66667" height="64" rx="21.33331" ry="21.33331" style="fill:#361200"/><rect x="128" y="192" width="42.66667" height="64" rx="21.33331" ry="21.33331" style="fill:#552a1f"/><path d="M192,277.33333v64a21.33334,21.33334,0,0,1-21.33333,21.33334h-64A85.33333,85.33333,0,0,0,21.33333,448v42.66667H490.66667V448a85.33333,85.33333,0,0,0-85.33334-85.33333h-64A21.33334,21.33334,0,0,1,320,341.33333v-64Z" style="fill:#552a1f"/><rect x="405.33333" y="448" width="42.66667" height="42.66667" style="fill:#361200"/><path d="M64,490.66667H42.66667V448a64.07,64.07,0,0,1,64-64v21.33333A42.71555,42.71555,0,0,0,64,448Z" style="fill:#8f492b"/><rect x="149.33333" y="405.33333" width="85.33333" height="42.66667" rx="21.33331" ry="21.33331" style="fill:#8f492b"/><circle cx="213.33333" cy="426.66667" r="21.33333" style="fill:#cb7956"/><path d="M341.33333,362.66667A21.33334,21.33334,0,0,1,320,341.33333v-64H234.66667v128a21.33333,21.33333,0,1,0,42.66666,0H384A21.33331,21.33331,0,0,0,405.33333,384v0A21.33331,21.33331,0,0,0,384,362.66667Z" style="fill:#361200"/><path d="M106.66667,448C192,448,256,490.66667,256,490.66667S320,448,405.33333,448v42.66667H106.66667Z" style="fill:#95daec"/><rect x="128" y="469.33333" width="64" height="21.33333" style="fill:#caecf6"/><path d="M292.77083,489.54167l-9.54166-19.08334C285.0625,469.54167,328.89583,448,394.66667,448v21.33333C333.89583,469.33333,293.16667,489.33333,292.77083,489.54167Z" style="fill:#3ebcdd"/><rect x="149.33333" y="42.66667" width="213.33333" height="298.66656" rx="106.66656" ry="106.66656" style="fill:#8f492b"/><path d="M320,64.48307v84.85026H277.33333v21.33334H320v42.66659a21.33333,21.33333,0,0,1,21.33333,21.33333v.00008A21.33333,21.33333,0,0,1,320,256H256v64h21.33333v19.18359a106.69065,106.69065,0,0,0,85.33334-104.51692V149.33333C362.66667,114.54948,345.76563,83.95443,320,64.48307Z" style="fill:#552a1f"/><path d="M149.33333,213.33333v21.33334H106.66667V192A149.33318,149.33318,0,0,1,255.99985,42.66682h.0003A149.33318,149.33318,0,0,1,405.33333,192v42.66667H362.66667s-21.33334,0-21.33334-21.33334c0,0,0-21.33333-21.33333-21.33333,0,0-21.33333,0-21.33333-21.33333,0,0,0-21.33334-21.33334-21.33334-42.66666,0-42.66666-42.66666-64-42.66666S192,128,192,128c0,21.33333-21.33333,21.33333-21.33333,42.66667S149.33333,192,149.33333,213.33333Z" style="fill:#361200"/><path d="M426.66667,341.33333H405.33333V330.66667c0-8.59375-5.875-10.54167-10.79166-10.66667-23.35417,0-31.875-19.13542-31.875-32,0-15.08333,7.97916-23.05208,13.79166-28.875C381.6875,253.89583,384,251.33333,384,245.33333V224h21.33333v21.33333c0,15.08334-7.97916,23.05209-13.79166,28.875C386.3125,279.4375,384,282,384,288c.125,4.80208,2.08333,10.66667,10.66667,10.66667,12.85416,0,32,8.52083,32,32Z" style="fill:#361200"/><path d="M117.33333,341.33333H106.66667V320h10.66666C118.85417,319.88542,128,318.30208,128,298.66667c0-6-2.3125-8.5625-7.54167-13.79167-5.8125-5.82292-13.79166-13.79167-13.79166-28.875,0-12.86458,8.52083-32,32-32v21.33333c-8.58334,0-10.54167,5.86459-10.66667,10.79167,0,5.875,2.3125,8.4375,7.54167,13.66667,5.8125,5.82291,13.79166,13.79166,13.79166,28.875C149.33333,332.41667,128.39583,341.33333,117.33333,341.33333Z" style="fill:#552a1f"/><path d="M256,42.66667a148.62777,148.62777,0,0,0-60.50651,12.88151c6.04427,9.83073,17.83984,13.91015,17.83984,29.78515,0,19.71745-18.01692,21.418-20.77734,38.375,1.23958-6.21614,5.52474-17.04166,20.77734-17.04166,21.33334,0,21.33334,42.66666,64,42.66666,21.33334,0,21.33334,21.33334,21.33334,21.33334C298.66667,192,320,192,320,192c21.33333,0,21.33333,21.33333,21.33333,21.33333,0,21.33334,21.33334,21.33334,21.33334,21.33334h42.66666V192A149.33322,149.33322,0,0,0,256,42.66667Z" style="fill:#290300"/><path d="M405.33333,213.33333H384a32.035,32.035,0,0,1-32-32,10.68056,10.68056,0,0,0-10.66667-10.66666,32.035,32.035,0,0,1-32-32A10.68056,10.68056,0,0,0,298.66667,128H277.33333a32.035,32.035,0,0,1-32-32,10.68056,10.68056,0,0,0-10.66666-10.66667H213.33333V64h21.33334a32.035,32.035,0,0,1,32,32,10.68056,10.68056,0,0,0,10.66666,10.66667h21.33334a32.035,32.035,0,0,1,32,32,10.68055,10.68055,0,0,0,10.66666,10.66666,32.035,32.035,0,0,1,32,32A10.68056,10.68056,0,0,0,384,192h21.33333Z" style="fill:#552a1f"/><path d="M405.33333,170.66667H384v-32A10.68056,10.68056,0,0,0,373.33333,128a32.035,32.035,0,0,1-32-32,10.68056,10.68056,0,0,0-10.66666-10.66667H309.33333a32.035,32.035,0,0,1-32-32,10.68055,10.68055,0,0,0-10.66666-10.66666H256V21.33333h10.66667a32.035,32.035,0,0,1,32,32A10.68056,10.68056,0,0,0,309.33333,64h21.33334a32.035,32.035,0,0,1,32,32,10.68056,10.68056,0,0,0,10.66666,10.66667,32.035,32.035,0,0,1,32,32Z" style="fill:#552a1f"/><path d="M128,213.33333H106.66667V160a32.035,32.035,0,0,1,32-32,10.68056,10.68056,0,0,0,10.66666-10.66667,32.035,32.035,0,0,1,32-32H192v21.33334H181.33333a10.68055,10.68055,0,0,0-10.66666,10.66666,32.035,32.035,0,0,1-32,32A10.68056,10.68056,0,0,0,128,160Z" style="fill:#8f492b"/><rect x="128" y="85.33333" width="21.33333" height="21.33333" style="fill:#8f492b"/><rect x="234.66667" y="42.66667" width="21.33333" height="21.33333" style="fill:#552a1f"/><polygon points="234.667 234.667 234.667 256 277.333 256 277.333 192 320 192 320 170.667 256 170.667 256 234.667 234.667 234.667" style="fill:#361200"/><rect x="298.66667" y="192" width="21.33333" height="21.33333" style="fill:#290300"/><rect x="192" y="192" width="21.33333" height="21.33333" style="fill:#290300"/><rect x="234.66667" y="277.33333" width="42.66667" height="21.33333" style="fill:#c6262d"/></g></svg>